<mxfile host="app.diagrams.net" modified="2023-03-23T09:39:19.782Z" agent="5.0 (Windows NT 10.0; Win64; x64) AppleWebKit/537.36 (KHTML, like Gecko) Chrome/111.0.0.0 Safari/537.36" etag="dntixkMz3MZiWmaeK36r" version="21.0.10" type="github">
  <diagram name="Page-1" id="b98fa263-6416-c6ec-5b7d-78bf54ef71d0">
    <mxGraphModel dx="1985" dy="1300" grid="1" gridSize="10" guides="1" tooltips="1" connect="1" arrows="1" fold="1" page="1" pageScale="1.5" pageWidth="1169" pageHeight="826" background="none" math="0" shadow="0">
      <root>
        <mxCell id="0" style=";html=1;" />
        <mxCell id="1" style=";html=1;" parent="0" />
        <mxCell id="GYk2_x4JcOaZVcFWCVfe-14" value="" style="edgeStyle=orthogonalEdgeStyle;rounded=0;orthogonalLoop=1;jettySize=auto;html=1;entryX=0.011;entryY=0.484;entryDx=0;entryDy=0;entryPerimeter=0;" edge="1" parent="1" source="GYk2_x4JcOaZVcFWCVfe-1" target="GYk2_x4JcOaZVcFWCVfe-6">
          <mxGeometry relative="1" as="geometry">
            <mxPoint x="575" y="755" as="targetPoint" />
          </mxGeometry>
        </mxCell>
        <mxCell id="GYk2_x4JcOaZVcFWCVfe-1" value="" style="rounded=0;whiteSpace=wrap;html=1;" vertex="1" parent="1">
          <mxGeometry x="160" y="710" width="250" height="90" as="geometry" />
        </mxCell>
        <mxCell id="GYk2_x4JcOaZVcFWCVfe-4" value="EMPLOYEE" style="text;html=1;strokeColor=none;fillColor=none;align=center;verticalAlign=middle;whiteSpace=wrap;rounded=0;strokeWidth=30;fontSize=30;" vertex="1" parent="1">
          <mxGeometry x="220" y="730" width="140" height="60" as="geometry" />
        </mxCell>
        <mxCell id="GYk2_x4JcOaZVcFWCVfe-6" value="" style="rhombus;whiteSpace=wrap;html=1;" vertex="1" parent="1">
          <mxGeometry x="597" y="605" width="280" height="310" as="geometry" />
        </mxCell>
        <mxCell id="GYk2_x4JcOaZVcFWCVfe-7" value="&lt;font style=&quot;font-size: 30px;&quot;&gt;WORKS ON&lt;/font&gt;" style="text;html=1;strokeColor=none;fillColor=none;align=center;verticalAlign=middle;whiteSpace=wrap;rounded=0;fontSize=30;" vertex="1" parent="1">
          <mxGeometry x="647" y="745" width="180" height="30" as="geometry" />
        </mxCell>
        <mxCell id="GYk2_x4JcOaZVcFWCVfe-8" value="" style="rounded=0;whiteSpace=wrap;html=1;" vertex="1" parent="1">
          <mxGeometry x="1050" y="710" width="240" height="90" as="geometry" />
        </mxCell>
        <mxCell id="GYk2_x4JcOaZVcFWCVfe-9" value="PROJECT" style="text;html=1;strokeColor=none;fillColor=none;align=center;verticalAlign=middle;whiteSpace=wrap;rounded=0;fontSize=30;" vertex="1" parent="1">
          <mxGeometry x="1070" y="720" width="200" height="70" as="geometry" />
        </mxCell>
        <mxCell id="GYk2_x4JcOaZVcFWCVfe-16" value="" style="edgeStyle=none;orthogonalLoop=1;jettySize=auto;html=1;rounded=0;entryX=0;entryY=0.5;entryDx=0;entryDy=0;" edge="1" parent="1" target="GYk2_x4JcOaZVcFWCVfe-8">
          <mxGeometry width="100" relative="1" as="geometry">
            <mxPoint x="880" y="755" as="sourcePoint" />
            <mxPoint x="960" y="750" as="targetPoint" />
            <Array as="points" />
          </mxGeometry>
        </mxCell>
        <mxCell id="GYk2_x4JcOaZVcFWCVfe-19" value="" style="endArrow=none;html=1;rounded=0;" edge="1" parent="1">
          <mxGeometry width="50" height="50" relative="1" as="geometry">
            <mxPoint x="1067.5" y="470" as="sourcePoint" />
            <mxPoint x="1067.5" y="710" as="targetPoint" />
            <Array as="points">
              <mxPoint x="1067.5" y="600" />
            </Array>
          </mxGeometry>
        </mxCell>
        <mxCell id="GYk2_x4JcOaZVcFWCVfe-20" value="" style="endArrow=none;html=1;rounded=0;entryX=0.931;entryY=0.028;entryDx=0;entryDy=0;entryPerimeter=0;" edge="1" parent="1" target="GYk2_x4JcOaZVcFWCVfe-8">
          <mxGeometry width="50" height="50" relative="1" as="geometry">
            <mxPoint x="1273" y="470" as="sourcePoint" />
            <mxPoint x="1310" y="810" as="targetPoint" />
          </mxGeometry>
        </mxCell>
        <mxCell id="GYk2_x4JcOaZVcFWCVfe-21" value="" style="ellipse;whiteSpace=wrap;html=1;" vertex="1" parent="1">
          <mxGeometry x="920" y="390" width="240" height="80" as="geometry" />
        </mxCell>
        <mxCell id="GYk2_x4JcOaZVcFWCVfe-25" value="PROJECT_ID" style="text;html=1;strokeColor=none;fillColor=none;align=center;verticalAlign=middle;whiteSpace=wrap;rounded=0;fontSize=30;" vertex="1" parent="1">
          <mxGeometry x="950" y="390" width="190" height="80" as="geometry" />
        </mxCell>
        <mxCell id="GYk2_x4JcOaZVcFWCVfe-26" value="" style="ellipse;whiteSpace=wrap;html=1;" vertex="1" parent="1">
          <mxGeometry x="1170" y="390" width="270" height="80" as="geometry" />
        </mxCell>
        <mxCell id="GYk2_x4JcOaZVcFWCVfe-27" value="PROJECT_NAME" style="text;html=1;strokeColor=none;fillColor=none;align=center;verticalAlign=middle;whiteSpace=wrap;rounded=0;fontSize=29;" vertex="1" parent="1">
          <mxGeometry x="1210" y="390" width="175" height="80" as="geometry" />
        </mxCell>
        <mxCell id="GYk2_x4JcOaZVcFWCVfe-30" value="" style="ellipse;whiteSpace=wrap;html=1;" vertex="1" parent="1">
          <mxGeometry x="20" y="370" width="270" height="80" as="geometry" />
        </mxCell>
        <mxCell id="GYk2_x4JcOaZVcFWCVfe-31" value="" style="ellipse;whiteSpace=wrap;html=1;" vertex="1" parent="1">
          <mxGeometry x="300" y="370" width="360" height="80" as="geometry" />
        </mxCell>
        <mxCell id="GYk2_x4JcOaZVcFWCVfe-32" value="" style="ellipse;whiteSpace=wrap;html=1;" vertex="1" parent="1">
          <mxGeometry x="340" y="380" width="280" height="60" as="geometry" />
        </mxCell>
        <mxCell id="GYk2_x4JcOaZVcFWCVfe-33" value="" style="endArrow=none;html=1;rounded=0;" edge="1" parent="1" target="GYk2_x4JcOaZVcFWCVfe-34">
          <mxGeometry width="50" height="50" relative="1" as="geometry">
            <mxPoint x="280" y="710" as="sourcePoint" />
            <mxPoint x="280" y="600" as="targetPoint" />
          </mxGeometry>
        </mxCell>
        <mxCell id="GYk2_x4JcOaZVcFWCVfe-34" value="" style="ellipse;whiteSpace=wrap;html=1;" vertex="1" parent="1">
          <mxGeometry x="190" y="539" width="180" height="80" as="geometry" />
        </mxCell>
        <mxCell id="GYk2_x4JcOaZVcFWCVfe-39" value="" style="endArrow=none;html=1;rounded=0;" edge="1" parent="1">
          <mxGeometry width="50" height="50" relative="1" as="geometry">
            <mxPoint x="160" y="710" as="sourcePoint" />
            <mxPoint x="160" y="450" as="targetPoint" />
          </mxGeometry>
        </mxCell>
        <mxCell id="GYk2_x4JcOaZVcFWCVfe-38" value="EMPLOYEE_ID" style="text;html=1;strokeColor=none;fillColor=none;align=center;verticalAlign=middle;whiteSpace=wrap;rounded=0;fontSize=22;" vertex="1" parent="1">
          <mxGeometry x="62.5" y="345" width="185" height="130" as="geometry" />
        </mxCell>
        <mxCell id="GYk2_x4JcOaZVcFWCVfe-40" value="PHONE_NUMBER" style="text;html=1;strokeColor=none;fillColor=none;align=center;verticalAlign=middle;whiteSpace=wrap;rounded=0;fontSize=23;" vertex="1" parent="1">
          <mxGeometry x="390" y="345" width="230" height="130" as="geometry" />
        </mxCell>
        <mxCell id="GYk2_x4JcOaZVcFWCVfe-42" value="" style="endArrow=none;html=1;rounded=0;entryX=0;entryY=0.75;entryDx=0;entryDy=0;" edge="1" parent="1" target="GYk2_x4JcOaZVcFWCVfe-40">
          <mxGeometry width="50" height="50" relative="1" as="geometry">
            <mxPoint x="390" y="710" as="sourcePoint" />
            <mxPoint x="440" y="540" as="targetPoint" />
          </mxGeometry>
        </mxCell>
        <mxCell id="GYk2_x4JcOaZVcFWCVfe-41" value="AGE" style="text;html=1;strokeColor=none;fillColor=none;align=center;verticalAlign=middle;whiteSpace=wrap;rounded=0;fontSize=28;" vertex="1" parent="1">
          <mxGeometry x="150" y="499" width="270" height="160" as="geometry" />
        </mxCell>
      </root>
    </mxGraphModel>
  </diagram>
</mxfile>
